<?xml version="1.0" encoding="UTF-8" standalone="no"?>
<svg
   xmlns:dc="http://purl.org/dc/elements/1.1/"
   xmlns:cc="http://creativecommons.org/ns#"
   xmlns:rdf="http://www.w3.org/1999/02/22-rdf-syntax-ns#"
   xmlns:svg="http://www.w3.org/2000/svg"
   xmlns="http://www.w3.org/2000/svg"
   xmlns:sodipodi="http://sodipodi.sourceforge.net/DTD/sodipodi-0.dtd"
   xmlns:inkscape="http://www.inkscape.org/namespaces/inkscape"
   version="1.1"
   id="svg2"
   width="104.23446"
   height="65.337135"
   viewBox="0 0 104.23446 65.337134"
   sodipodi:docname="favicon.svg"
   inkscape:export-filename="/home/gogvale/Documents/UnionChurchWebsite/unionChurchWebsite/img/favicon.png"
   inkscape:export-xdpi="96"
   inkscape:export-ydpi="96"
   inkscape:version="1.0.1 (0767f8302a, 2020-10-17)">
  <metadata
     id="metadata8">
    <rdf:RDF>
      <cc:Work
         rdf:about="">
        <dc:format>image/svg+xml</dc:format>
        <dc:type
           rdf:resource="http://purl.org/dc/dcmitype/StillImage" />
        <dc:title></dc:title>
      </cc:Work>
    </rdf:RDF>
  </metadata>
  <defs
     id="defs6" />
  <sodipodi:namedview
     pagecolor="#ffffff"
     bordercolor="#666666"
     borderopacity="1"
     objecttolerance="10"
     gridtolerance="10"
     guidetolerance="10"
     inkscape:pageopacity="0"
     inkscape:pageshadow="2"
     inkscape:window-width="1368"
     inkscape:window-height="713"
     id="namedview4"
     showgrid="false"
     inkscape:snap-bbox="true"
     inkscape:bbox-paths="true"
     inkscape:bbox-nodes="true"
     inkscape:snap-bbox-edge-midpoints="true"
     inkscape:snap-bbox-midpoints="true"
     inkscape:object-paths="true"
     inkscape:snap-intersection-paths="true"
     inkscape:snap-midpoints="true"
     inkscape:snap-smooth-nodes="true"
     lock-margins="true"
     fit-margin-top="5"
     fit-margin-left="5"
     fit-margin-right="5"
     fit-margin-bottom="5"
     inkscape:zoom="4.5970882"
     inkscape:cx="53.265529"
     inkscape:cy="35.900948"
     inkscape:window-x="0"
     inkscape:window-y="27"
     inkscape:window-maximized="1"
     inkscape:current-layer="g10" />
  <g
     inkscape:groupmode="layer"
     inkscape:label="Image"
     id="g10"
     transform="translate(-21.399794,-15.187448)">
    <rect
       style="opacity:1;fill:#cc6600;fill-opacity:1;stroke:none;stroke-width:0.8;stroke-miterlimit:4;stroke-dasharray:none;stroke-opacity:1"
       id="rect1180"
       width="118.61787"
       height="76.694511"
       x="14.795763"
       y="10.457115" />
    <g
       id="g1160"
       style="stroke:#cc6600;stroke-opacity:1;stroke-width:0.8;stroke-miterlimit:4;stroke-dasharray:none">
      <path
         id="rect1097"
         style="fill:#ececec;fill-opacity:1;stroke:#cc6600;stroke-width:0.8;stroke-miterlimit:4;stroke-dasharray:none;stroke-opacity:1"
         d="M 5.09375 5.09375 L 5.09375 32.667969 A 27.573996 27.573996 0 0 0 32.667969 60.242188 A 27.573996 27.573996 0 0 0 56.142578 47.134766 A 27.573996 27.573996 0 0 0 79.617188 60.242188 A 27.573996 27.573996 0 0 0 98.990234 52.289062 L 93.191406 46.490234 A 19.374029 19.374029 0 0 1 93.072266 46.605469 L 90.851562 44.630859 A 16.370222 16.370222 0 0 1 79.9375 48.802734 A 16.370222 16.370222 0 0 1 63.566406 32.431641 A 16.370222 16.370222 0 0 1 79.740234 16.0625 A 16.370222 16.370222 0 0 1 79.9375 16.0625 A 16.370222 16.370222 0 0 1 91.662109 21.009766 L 95.433594 16.605469 L 98.990234 13.048828 A 27.573996 27.573996 0 0 0 79.617188 5.09375 A 27.573996 27.573996 0 0 0 79.509766 5.09375 A 27.573996 27.573996 0 0 0 60.242188 13.046875 L 60.242188 5.09375 L 52.042969 5.09375 L 46.810547 5.09375 L 46.810547 32.460938 C 46.811432 39.89018 40.788619 45.912995 33.359375 45.912109 C 25.930894 45.911916 19.909271 39.889419 19.910156 32.460938 L 19.910156 5.09375 L 13.294922 5.09375 L 9.1953125 5.09375 L 5.09375 5.09375 z M 98.994141 13.050781 L 99.21875 13.277344 A 27.573996 27.573996 0 0 0 98.994141 13.050781 z M 99.234375 52.044922 L 99.007812 52.271484 A 27.573996 27.573996 0 0 0 99.234375 52.044922 z "
         transform="translate(21.399794,15.187448)" />
      <path
         id="rect1065"
         style="fill:#cc6600;fill-opacity:1;stroke:#cc6600;stroke-width:0.8;stroke-miterlimit:4;stroke-dasharray:none;stroke-opacity:1"
         d="m 76.4565,34.348003 v 3.347658 h -3.014091 v 3.360194 H 76.4565 v 11.75441 h 3.359647 v -11.75441 h 3.014095 v -3.360194 h -3.014095 v -3.347658 z"
         sodipodi:nodetypes="ccccccccccccc" />
    </g>
  </g>
</svg>
