<?xml version="1.0" encoding="UTF-8" standalone="no"?>
<svg
   xmlns:dc="http://purl.org/dc/elements/1.1/"
   xmlns:cc="http://creativecommons.org/ns#"
   xmlns:rdf="http://www.w3.org/1999/02/22-rdf-syntax-ns#"
   xmlns:svg="http://www.w3.org/2000/svg"
   xmlns="http://www.w3.org/2000/svg"
   xmlns:sodipodi="http://sodipodi.sourceforge.net/DTD/sodipodi-0.dtd"
   xmlns:inkscape="http://www.inkscape.org/namespaces/inkscape"
   version="1.1"
   id="svg2"
   width="1000"
   height="1000"
   viewBox="0 0 1000 999.99998"
   sodipodi:docname="favicon.svg"
   inkscape:export-filename="/home/gogvale/Documents/UnionChurchWebsite/unionChurchWebsite/img/favicon.png"
   inkscape:export-xdpi="96"
   inkscape:export-ydpi="96"
   inkscape:version="1.0.1 (0767f8302a, 2020-10-17)">
  <metadata
     id="metadata8">
    <rdf:RDF>
      <cc:Work
         rdf:about="">
        <dc:format>image/svg+xml</dc:format>
        <dc:type
           rdf:resource="http://purl.org/dc/dcmitype/StillImage" />
        <dc:title></dc:title>
      </cc:Work>
    </rdf:RDF>
  </metadata>
  <defs
     id="defs6" />
  <sodipodi:namedview
     pagecolor="#ffffff"
     bordercolor="#666666"
     borderopacity="1"
     objecttolerance="10"
     gridtolerance="10"
     guidetolerance="10"
     inkscape:pageopacity="0"
     inkscape:pageshadow="2"
     inkscape:window-width="1368"
     inkscape:window-height="713"
     id="namedview4"
     showgrid="false"
     inkscape:snap-bbox="true"
     inkscape:bbox-paths="true"
     inkscape:bbox-nodes="true"
     inkscape:snap-bbox-edge-midpoints="true"
     inkscape:snap-bbox-midpoints="true"
     inkscape:object-paths="true"
     inkscape:snap-intersection-paths="true"
     inkscape:snap-midpoints="true"
     inkscape:snap-smooth-nodes="true"
     lock-margins="true"
     fit-margin-top="0"
     fit-margin-left="0"
     fit-margin-right="0"
     fit-margin-bottom="0"
     inkscape:zoom="0.18069238"
     inkscape:cx="-917.77715"
     inkscape:cy="552.69402"
     inkscape:window-x="0"
     inkscape:window-y="27"
     inkscape:window-maximized="1"
     inkscape:current-layer="g10"
     inkscape:document-rotation="0"
     inkscape:snap-global="true" />
  <g
     inkscape:groupmode="layer"
     inkscape:label="Image"
     id="g10"
     transform="translate(-24.294535,-1.2318892)">
    <g
       id="g1448"
       transform="matrix(10,0,0,10,-218.65085,-11.087008)">
      <rect
         style="opacity:1;fill:#cc6600;fill-opacity:1;stroke:none;stroke-width:0.83875;stroke-miterlimit:4;stroke-dasharray:none;stroke-opacity:1"
         id="rect1180"
         width="100"
         height="100"
         x="24.294538"
         y="1.2318897" />
      <g
         id="g1440"
         transform="translate(0.7600644,3.376499)">
        <path
           id="rect1097"
           style="fill:#ececec;fill-opacity:1;stroke:#cc6600;stroke-width:0.8;stroke-miterlimit:4;stroke-dasharray:none;stroke-opacity:1"
           d="m 5.09375,5.09375 v 27.574219 c -1.23e-4,15.228872 12.345347,27.574342 27.574219,27.574219 9.569152,1.01e-4 18.454196,-4.961004 23.474609,-13.107422 5.020413,8.146418 13.905456,13.107521 23.47461,13.107422 7.25229,-2.15e-4 14.212526,-2.857567 19.373046,-7.953126 l -8.884765,-7.86914 c -0.04981,0.04458 0.05217,-0.0413 0,0 v 0 0 0 C 87.280425,46.861334 83.671313,48.204871 79.9375,48.205078 71.348527,48.205556 64.385367,41.24327 64.384766,32.654297 64.384288,24.064561 71.347764,17.101084 79.9375,17.101562 c 3.963252,7.1e-5 8.325782,1.718333 11.210938,4.435547 l 1.242187,-1.376953 0.002,-0.002 3.041016,-3.552734 3.55664,-3.556641 C 93.830024,7.9525542 86.869758,5.094485 79.617188,5.09375 c -0.0358,-7e-5 -0.0716,-7e-5 -0.107422,0 C 72.294018,5.12162 65.376693,7.9769 60.242188,13.046875 V 5.09375 H 52.042969 46.810547 V 32.460938 C 46.811432,39.89018 40.788619,45.912995 33.359375,45.912109 25.930894,45.911916 19.909271,39.889419 19.910156,32.460938 V 5.09375 H 13.294922 9.1953125 Z m 93.900391,7.957031 0.224609,0.226563 c -0.0744,-0.07595 -0.149309,-0.151476 -0.224609,-0.226563 z m 0.240234,38.994141 -0.226563,0.226562 c 0.076,-0.07508 0.151483,-0.150603 0.226563,-0.226562 z"
           transform="translate(21.399794,15.187448)"
           sodipodi:nodetypes="cccccccccccscccccccccccccccccccccccccc" />
        <g
           id="g834"
           style="stroke:#cc6600;stroke-width:0.8;stroke-miterlimit:4;stroke-dasharray:none;stroke-opacity:1"
           transform="matrix(1.385027,0,0,1.385027,-30.084748,-16.779132)">
          <path
             style="color:#000000;font-style:normal;font-variant:normal;font-weight:normal;font-stretch:normal;font-size:medium;line-height:normal;font-family:sans-serif;font-variant-ligatures:normal;font-variant-position:normal;font-variant-caps:normal;font-variant-numeric:normal;font-variant-alternates:normal;font-variant-east-asian:normal;font-feature-settings:normal;font-variation-settings:normal;text-indent:0;text-align:start;text-decoration:none;text-decoration-line:none;text-decoration-style:solid;text-decoration-color:#000000;letter-spacing:normal;word-spacing:normal;text-transform:none;writing-mode:lr-tb;direction:ltr;text-orientation:mixed;dominant-baseline:auto;baseline-shift:baseline;text-anchor:start;white-space:normal;shape-padding:0;shape-margin:0;inline-size:0;clip-rule:nonzero;display:inline;overflow:visible;visibility:visible;isolation:auto;mix-blend-mode:normal;color-interpolation:sRGB;color-interpolation-filters:linearRGB;solid-color:#000000;solid-opacity:1;vector-effect:none;fill:#cc6600;fill-opacity:1;fill-rule:nonzero;stroke:none;stroke-width:0.8;stroke-linecap:butt;stroke-linejoin:miter;stroke-miterlimit:4;stroke-dasharray:none;stroke-dashoffset:0;stroke-opacity:1;color-rendering:auto;image-rendering:auto;shape-rendering:auto;text-rendering:auto;enable-background:accumulate;stop-color:#000000;stop-opacity:1"
             d="m 76.4565,34.348003 v 3.347658 h -3.014091 v 3.360194 H 76.4565 v 11.75441 h 3.359647 v -11.75441 h 3.014095 v -3.360194 h -3.014095 v -3.347658 z"
             id="path836" />
          <path
             style="color:#000000;font-style:normal;font-variant:normal;font-weight:normal;font-stretch:normal;font-size:medium;line-height:normal;font-family:sans-serif;font-variant-ligatures:normal;font-variant-position:normal;font-variant-caps:normal;font-variant-numeric:normal;font-variant-alternates:normal;font-variant-east-asian:normal;font-feature-settings:normal;font-variation-settings:normal;text-indent:0;text-align:start;text-decoration:none;text-decoration-line:none;text-decoration-style:solid;text-decoration-color:#000000;letter-spacing:normal;word-spacing:normal;text-transform:none;writing-mode:lr-tb;direction:ltr;text-orientation:mixed;dominant-baseline:auto;baseline-shift:baseline;text-anchor:start;white-space:normal;shape-padding:0;shape-margin:0;inline-size:0;clip-rule:nonzero;display:inline;overflow:visible;visibility:visible;isolation:auto;mix-blend-mode:normal;color-interpolation:sRGB;color-interpolation-filters:linearRGB;solid-color:#000000;solid-opacity:1;vector-effect:none;fill:#cc6600;fill-opacity:1;fill-rule:nonzero;stroke:none;stroke-width:0.8;stroke-linecap:butt;stroke-linejoin:miter;stroke-miterlimit:4;stroke-dasharray:none;stroke-dashoffset:0;stroke-opacity:1;color-rendering:auto;image-rendering:auto;shape-rendering:auto;text-rendering:auto;enable-background:accumulate;stop-color:#000000;stop-opacity:1"
             d="m 76.056641,33.947266 v 0.40039 2.947266 h -3.013672 v 4.160156 h 3.013672 v 11.75586 h 4.160156 v -11.75586 h 3.013672 v -4.160156 h -3.013672 v -3.347656 z m 0.800781,0.800781 h 2.558594 v 3.347656 h 3.013672 V 40.65625 H 79.416016 V 52.410156 H 76.857422 V 40.65625 h -3.015625 v -2.560547 h 3.015625 z"
             id="path838" />
        </g>
      </g>
    </g>
  </g>
</svg>
